<?xml version="1.0" standalone="no"?>
<!DOCTYPE svg PUBLIC "-//W3C//DTD SVG 20010904//EN"
 "http://www.w3.org/TR/2001/REC-SVG-20010904/DTD/svg10.dtd">
<svg version="1.0" xmlns="http://www.w3.org/2000/svg"
 width="13024.000000pt" height="5171.000000pt" viewBox="0 0 13024.000000 5171.000000"
 preserveAspectRatio="xMidYMid meet">

<g transform="translate(0.000000,5171.000000) scale(0.100000,-0.100000)"
fill="#000000" stroke="none">
<path d="M46120 51684 c-195 -52 -299 -228 -330 -559 -47 -509 87 -1392 365
-2385 674 -2416 1489 -7654 1665 -10700 47 -821 50 -1517 9 -1959 -6 -62 -9
-115 -7 -117 2 -1 511 1549 1131 3446 l1128 3449 -61 353 c-457 2644 -1028
4722 -1709 6223 -109 238 -336 683 -446 870 -259 443 -541 823 -723 975 -366
307 -777 470 -1022 404z"/>
<path d="M50630 51226 c-78 -17 -142 -50 -205 -108 -212 -193 -327 -627 -269
-1017 8 -58 40 -217 69 -353 145 -659 555 -2813 720 -3773 26 -148 49 -277 51
-285 3 -8 289 851 635 1910 l630 1925 -36 75 c-101 206 -343 601 -514 841
-147 205 -250 326 -400 472 -191 184 -342 278 -504 311 -88 18 -102 19 -177 2z"/>
<path d="M43021 50520 c-226 -81 -377 -394 -422 -873 -15 -160 -7 -524 15
-697 27 -205 40 -267 216 -970 938 -3759 1578 -7322 1849 -10295 89 -971 108
-1390 71 -1590 -23 -121 -70 -177 -134 -161 -39 10 -117 91 -180 188 -90 139
-101 169 -120 318 -58 455 -228 1612 -341 2330 -594 3757 -1233 6533 -1821
7907 -139 326 -262 553 -419 773 -45 63 -124 178 -175 255 -52 77 -123 169
-159 205 -310 308 -756 343 -1018 80 -61 -62 -122 -175 -150 -280 -15 -52 -18
-104 -17 -265 1 -230 8 -298 70 -680 92 -571 162 -889 504 -2290 681 -2789
900 -3938 1095 -5748 134 -1245 216 -2436 246 -3575 46 -1733 -183 -3981 -631
-6207 -695 -3449 -1834 -6537 -3233 -8765 -889 -1415 -1947 -2546 -3282 -3510
-831 -599 -1800 -1141 -2797 -1564 -1128 -479 -2454 -864 -3519 -1021 -64 -9
-123 -21 -130 -26 -44 -29 204 -150 1081 -526 364 -157 446 -188 745 -289
1101 -372 2427 -695 3776 -919 1128 -187 2174 -297 3419 -357 487 -24 2403
-13 2424 14 5 5 7589 23202 7594 23226 4 18 0 22 -20 22 -41 0 -76 37 -117
123 -104 215 -194 659 -271 1337 -148 1296 -370 2923 -581 4265 -659 4186
-1397 7083 -2134 8380 -281 495 -723 983 -1030 1138 -135 68 -294 86 -404 47z"/>
<path d="M35265 40803 c-295 -443 -533 -809 -528 -813 4 -5 94 -61 198 -125
2023 -1246 3855 -2982 5072 -4805 123 -185 297 -469 291 -475 -2 -2 -48 32
-103 76 -625 507 -2812 2034 -4480 3129 -643 422 -1722 1107 -1729 1098 -26
-30 -1326 -1992 -1324 -1997 2 -4 131 -110 288 -236 1582 -1267 3436 -2970
5266 -4837 604 -616 880 -903 1190 -1233 190 -203 218 -238 104 -130 -461 437
-701 659 -1040 966 -409 368 -700 619 -1218 1052 -1559 1299 -3188 2434 -4722
3289 -337 188 -461 252 -470 242 -19 -21 -1350 -2025 -1350 -2033 0 -5 82 -73
183 -152 1255 -987 3213 -2629 4845 -4066 1229 -1083 3262 -2908 3262 -2929 0
-3 -21 12 -48 33 -2827 2274 -5234 4073 -7148 5343 -667 443 -1598 1021 -1615
1002 -12 -13 -849 -1272 -851 -1280 -2 -5 152 -126 342 -268 2305 -1732 4640
-3910 7673 -7154 213 -228 413 -437 445 -463 115 -97 300 -195 461 -244 77
-24 103 -27 241 -27 143 0 161 2 235 27 109 36 193 88 287 175 115 109 168
185 282 412 1106 2189 1858 5389 2096 8920 46 690 64 1267 57 1910 -8 775 -46
1351 -152 2280 -19 168 -46 420 -60 560 -13 140 -31 291 -39 335 -19 99 -78
220 -142 294 -26 29 -142 124 -258 210 -1340 999 -2748 1804 -4230 2420 -200
84 -600 239 -722 281 l-52 18 -537 -805z"/>
</g>
</svg>
